# Blender v2.91.2 OBJ File: 'cylinder.blend'
# www.blender.org
mtllib cylinder_out_both_side.mtl
o out.002
v 0.422086 1.096744 -1.645799
v 0.000001 1.174542 1.645799
v 0.532725 1.040133 1.645799
v 0.952547 0.691338 -1.645799
v 0.887291 0.758145 1.645799
v 1.075014 0.445285 1.645799
v 1.177352 0.029294 -1.645799
v 0.422086 -1.096744 -1.645799
v 0.000001 -1.174542 1.645799
v 0.532725 -1.040133 1.645799
v 0.952547 -0.691338 -1.645799
v 0.887291 -0.758145 1.645799
v 1.075014 -0.445285 1.645799
v 1.177352 -0.029294 -1.645799
v -1.157659 -0.246047 -1.645799
v -1.160805 -0.134923 1.645799
v -0.881467 -0.766257 -1.645799
v -0.958109 -0.679304 1.645799
v -0.529619 -1.039987 -1.645799
v -0.532723 -1.040134 1.645799
v -0.114370 -1.161229 -1.645799
v -1.157659 0.246047 -1.645799
v -1.160805 0.134923 1.645799
v -0.881467 0.766257 -1.645799
v -0.958109 0.679304 1.645799
v -0.529619 1.039987 -1.645799
v -0.532723 1.040134 1.645799
v -0.114370 1.161229 -1.645799
v -0.646453 0.967488 0.533109
v -0.705710 0.916559 -0.929708
v 0.227004 1.141228 0.747329
v 0.227004 1.141228 -1.194880
v -0.967486 0.646455 -0.462707
v 0.445285 1.075014 0.666643
v 0.384572 1.100463 -1.147041
v -0.822779 0.822781 0.342385
v -0.822779 0.822781 -0.789935
v 0.646454 0.967487 0.533108
v 0.000000 1.163586 -1.223776
v 0.000000 1.163586 0.776225
v 0.831559 0.812053 0.331474
v 0.822780 0.822780 -0.789934
v -0.445284 1.075014 0.666644
v -0.529242 1.038604 -1.076001
v 0.983237 0.623251 -0.027443
v 0.967487 0.646454 -0.462704
v -0.227003 1.141229 0.747329
v -0.227003 1.141229 -1.194880
v -0.923880 0.699590 -0.606459
v -0.923880 0.699590 0.158908
v 0.555571 1.016065 -1.055245
v 0.923880 0.699589 -0.606458
v -1.000000 0.585626 -0.223775
v -0.972536 0.618081 -0.029677
v 0.705710 0.916558 -0.929708
v -0.103202 1.198733 -1.226775
v 0.659126 0.787120 -0.944454
v -0.938762 0.679994 -0.551152
v 0.942762 0.664318 -0.552966
v -0.590299 1.015710 -1.032681
v 0.994548 0.603269 -0.229154
v 0.340852 1.109306 -1.164078
v 0.867459 0.403449 -0.682636
v -0.125751 0.104381 -0.945580
v -0.646453 -0.967488 0.533109
v -0.705710 -0.916559 -0.929708
v 0.227004 -1.141228 0.747329
v 0.227004 -1.141228 -1.194880
v -0.967486 -0.646455 -0.462707
v 0.445285 -1.075014 0.666643
v 0.384572 -1.100463 -1.147041
v -0.822779 -0.822781 0.342385
v -0.822779 -0.822781 -0.789935
v 0.646454 -0.967487 0.533108
v 0.000000 -1.163586 -1.223776
v 0.000000 -1.163586 0.776225
v 0.831559 -0.812053 0.331474
v 0.822780 -0.822780 -0.789934
v -0.445284 -1.075014 0.666644
v -0.529242 -1.038604 -1.076001
v 0.983237 -0.623251 -0.027443
v 0.967487 -0.646454 -0.462704
v -0.227003 -1.141229 0.747329
v -0.227003 -1.141229 -1.194880
v -0.923880 -0.699590 -0.606459
v -0.923880 -0.699590 0.158908
v 0.555571 -1.016065 -1.055245
v 0.923880 -0.699589 -0.606458
v -0.972536 -0.618081 -0.029677
v 0.705710 -0.916558 -0.929708
v -0.103202 -1.198733 -1.226775
v 0.659126 -0.787120 -0.944454
v -0.864602 0.407943 -0.686131
v 0.396497 0.082885 -0.880740
v -0.938762 -0.679994 -0.551152
v -0.631477 0.078985 -0.775848
v 1.061151 0.271707 -0.350117
v -1.062856 0.269054 -0.344488
v 0.002427 2.973747 -1.437782
v 0.645954 2.780804 -1.207194
v -0.914174 2.519472 -0.824878
v -0.989695 2.409426 -0.446081
v 0.962291 2.467933 -0.682515
v -0.439349 2.886976 -1.328943
v -0.641099 2.780805 -1.207195
v 0.227643 2.951852 -1.409089
v -0.957437 2.467935 -0.682518
v 0.994548 2.409427 -0.446080
v 0.444506 2.886986 -1.333676
v -0.813870 2.639952 -1.006945
v 0.818724 2.639951 -1.006944
v 0.919028 2.519471 -0.824877
v -0.222787 2.951852 -1.409089
v 1.171035 0.000000 1.645799
v 1.177352 -0.000000 -0.000002
v -1.139158 0.000000 -1.645799
v -1.149902 0.000000 1.645799
v 0.736952 0.000000 -0.662592
v -0.772915 0.000000 -0.622489
v 0.392074 0.000000 -0.839709
v -0.628772 0.000000 -0.732019
v -0.122716 0.000000 -0.896093
v 0.931250 0.000000 -0.470176
v 1.087571 0.000000 -0.191534
v -1.088121 -0.000000 -0.189957
v -1.140778 0.000000 0.058867
v 1.142740 0.000000 0.069199
v -0.913625 0.000000 -0.497825
v -0.989695 -0.603268 -0.229155
v 0.942762 -0.664318 -0.552966
v -0.590299 -1.015710 -1.032681
v 0.994548 -0.603269 -0.229154
v 0.340852 -1.109306 -1.164078
v 0.867459 -0.403449 -0.682636
v -0.125751 -0.104381 -0.945580
v -0.864602 -0.407943 -0.686131
v 0.396497 -0.082885 -0.880740
v -0.631477 -0.078985 -0.775848
v 1.061151 -0.271707 -0.350117
v -1.062856 -0.269054 -0.344488
v 0.002427 -2.973747 -1.437782
v 0.645954 -2.780804 -1.207194
v -0.914174 -2.519472 -0.824878
v -0.989695 -2.409426 -0.446081
v 0.962291 -2.467933 -0.682515
v -0.439349 -2.886976 -1.328943
v -0.641099 -2.780805 -1.207195
v 0.227643 -2.951852 -1.409089
v -0.957437 -2.467935 -0.682518
v 0.994548 -2.409427 -0.446080
v 0.444506 -2.886986 -1.333676
v -0.813870 -2.639952 -1.006945
v 0.818724 -2.639951 -1.006944
v 0.919028 -2.519471 -0.824877
v -0.222787 -2.951852 -1.409089
vt 0.941651 0.500000
vt 0.946452 0.575675
vt 0.968750 0.568495
vt 0.920368 0.589706
vt 0.850078 0.500000
vt 0.853167 0.657878
vt 0.875000 0.630008
vt 0.812500 1.000000
vt 0.850078 0.500000
vt 0.834301 0.716008
vt 0.812500 1.000000
vt 0.834301 0.716008
vt 0.146833 0.657878
vt 0.136087 0.500000
vt 0.125000 0.630007
vt 0.015625 0.500000
vt 0.000000 0.564106
vt 0.031250 0.568495
vt 1.000000 0.500000
vt 1.000000 0.564106
vt 0.151723 1.000000
vt 0.160113 0.745647
vt 0.146833 0.774138
vt 0.062500 0.851264
vt 0.075317 1.000000
vt 0.093750 0.830980
vt 0.904577 0.601849
vt 0.885715 0.618817
vt 0.909377 0.598118
vt 0.847297 0.671491
vt 0.836094 0.710108
vt 0.849117 0.667269
vt 0.163459 0.708580
vt 0.152839 0.671804
vt 0.151266 0.668156
vt 0.100563 0.608562
vt 0.080905 0.591686
vt 0.080432 0.591359
vt 0.165699 0.716008
vt 0.216766 0.500000
vt 0.160113 0.745647
vt 0.937500 0.851264
vt 0.924683 1.000000
vt 0.906250 0.830980
vt 0.084711 0.594251
vt 0.114597 0.619143
vt 0.951085 0.574732
vt 0.952441 0.573756
vt 0.151216 0.668042
vt 0.000000 0.867910
vt 0.015625 1.000000
vt 0.031250 0.863521
vt 0.937613 0.580688
vt 0.968750 0.568495
vt 0.848372 0.668998
vt 0.843750 0.679714
vt 0.853167 0.657878
vt 0.895498 0.608599
vt 0.843750 0.679714
vt 0.924683 1.000000
vt 0.968750 0.863521
vt 0.937500 0.851264
vt 0.862548 1.000000
vt 0.906250 0.830980
vt 0.873093 0.800374
vt 0.875000 0.630008
vt 0.853167 0.657878
vt 1.000000 0.867910
vt 0.989637 1.000000
vt 0.968750 0.568495
vt 1.000000 0.500000
vt 1.000000 0.564106
vt 0.146833 0.657878
vt 0.125000 0.630007
vt 0.136087 0.500000
vt 0.015625 0.500000
vt 0.031250 0.568495
vt 0.000000 0.564106
vt 0.151723 1.000000
vt 0.146833 0.774138
vt 0.904755 0.601692
vt 0.909377 0.598118
vt 0.885715 0.618817
vt 0.750097 0.750000
vt 0.754098 0.500000
vt 0.749958 0.500000
vt 0.839965 0.745780
vt 0.104502 0.608599
vt 0.156250 0.679714
vt 0.074952 0.500000
vt 0.074856 0.587210
vt 0.216766 0.500000
vt 0.231567 1.000000
vt 0.165699 0.716008
vt 0.250496 0.500000
vt 0.250122 1.000000
vt 0.941651 0.500000
vt 0.946452 0.575675
vt 0.125000 0.802009
vt 0.080432 0.591359
vt 0.906549 0.600651
vt 0.951126 0.574710
vt 0.114597 0.619143
vt 0.151266 0.668156
vt 0.151216 0.668042
vt 0.876741 0.628190
vt 0.084711 0.594251
vt 0.104502 0.608599
vt 0.843750 0.679714
vt 0.849117 0.667269
vt 0.968750 0.863521
vt 0.989637 1.000000
vt 0.951085 0.574732
vt 0.231567 1.000000
vt 0.120759 0.625578
vt 0.074952 0.500000
vt 0.074856 0.587210
vt 0.075317 1.000000
vt 0.031250 0.863521
vt 0.062500 0.851264
vt 0.848372 0.668998
vt 0.853167 0.657878
vt 0.843750 0.679714
vt 0.862548 1.000000
vt 0.873093 0.800374
vt 0.839965 0.745780
vt 0.014220 0.566103
vt 0.013939 0.566064
vt 0.156250 0.679714
vt 0.014143 0.566093
vt 1.000000 0.867910
vt 0.952441 0.573756
vt 1.000000 0.564106
vt 1.000000 0.564106
vt 0.014220 0.566103
vt 0.125000 0.802009
vt 1.000000 0.564106
vt 0.125000 0.630007
vt 0.146833 0.657878
vt 0.156250 0.679714
vt 0.165699 0.716008
vt 1.000000 0.564106
vt 0.093561 0.600913
vt 0.062500 0.580752
vt 0.906439 0.600913
vt 0.875000 0.630008
vt 0.031250 0.568495
vt 0.834301 0.716008
vt 0.000000 0.564106
vt 0.968750 0.568495
vt 0.937613 0.580688
vt 0.920368 0.589706
vt 0.895498 0.608599
vt 1.000000 0.564106
vt 0.000000 0.867910
vt 0.015625 1.000000
vt 0.093750 0.830980
vt 0.834301 0.716008
vt 0.125000 0.630007
vt 0.146833 0.657878
vt 0.156250 0.679714
vt 0.165699 0.716008
vt 1.000000 0.564106
vt 0.093561 0.600913
vt 0.062500 0.580752
vt 0.906439 0.600913
vt 0.875000 0.630008
vt 0.013939 0.566064
vt 0.834301 0.716008
vt 0.031250 0.568495
vt 0.000000 0.564106
vt 0.165699 0.716008
vt 0.754098 0.500000
vt 1.000000 0.564106
vt 0.750196 1.000000
vn -0.3778 -0.9254 0.0293
vn -0.3573 -0.9337 -0.0199
vn -0.1714 -0.9850 0.0180
vn -0.5276 -0.8495 0.0032
vn -0.8201 -0.5719 0.0149
vn -0.7539 -0.6567 -0.0156
vn -0.7251 -0.6886 -0.0042
vn -0.9305 0.3663 -0.0035
vn -0.8201 0.5719 0.0149
vn -0.9408 0.3342 0.0561
vn -0.9305 -0.3663 -0.0035
vn -0.9408 -0.3342 0.0561
vn 0.7597 -0.6501 -0.0107
vn 0.7651 -0.6437 0.0138
vn 0.7303 -0.6831 -0.0049
vn 0.0874 -0.9958 0.0263
vn -0.0188 -0.9998 0.0107
vn 0.2316 -0.9728 -0.0012
vn 0.8195 -0.5730 -0.0120
vn 0.7215 -0.6921 0.0191
vn 0.8298 -0.5578 0.0115
vn 0.3989 -0.9170 0.0029
vn 0.4600 -0.8877 -0.0180
vn 0.5985 -0.8010 -0.0094
vn -0.6015 0.0000 0.7989
vn -0.7439 0.1403 0.6533
vn -0.5622 0.1590 0.8115
vn -0.9526 0.0000 0.3041
vn -0.9910 0.0000 0.1334
vn -0.9489 -0.0258 0.3143
vn 0.9914 0.0039 0.1304
vn 0.9520 0.0000 0.3062
vn 0.9495 -0.0265 0.3125
vn 0.6564 0.0000 0.7544
vn 0.4834 0.0000 0.8754
vn 0.4478 0.3346 0.8292
vn 0.9828 0.1834 0.0231
vn 0.9795 0.2011 0.0078
vn 0.8802 0.4745 0.0067
vn -0.3989 0.9170 0.0029
vn -0.4471 0.8943 -0.0161
vn -0.5955 0.8033 -0.0011
vn 0.5021 0.1522 0.8513
vn 0.7460 0.1299 0.6532
vn -0.2797 0.3413 0.8974
vn -0.2826 0.1718 0.9437
vn 0.9449 -0.0102 0.3272
vn 0.0000 -0.9999 0.0126
vn 0.0000 -0.9998 -0.0203
vn 0.2153 -0.9765 -0.0038
vn -0.3724 0.1096 0.9216
vn -0.1893 0.1179 0.9748
vn -0.9450 -0.0099 0.3269
vn -0.9706 0.0277 0.2391
vn -0.8931 0.0540 0.4466
vn -0.6189 -0.7850 0.0249
vn -0.8107 -0.5853 -0.0120
vn -0.4471 -0.8943 -0.0161
vn -0.2153 -0.9765 -0.0038
vn -0.3989 -0.9170 0.0029
vn -0.7530 -0.6580 -0.0088
vn -0.5955 -0.8033 -0.0011
vn -0.7408 -0.6717 0.0038
vn -0.7251 0.6886 -0.0042
vn -0.7539 0.6567 -0.0156
vn -0.1714 0.9850 0.0180
vn 0.0874 0.9958 0.0263
vn -0.0188 0.9998 0.0107
vn 0.7597 0.6501 -0.0107
vn 0.7303 0.6831 -0.0049
vn 0.7651 0.6437 0.0138
vn 0.2316 0.9728 -0.0012
vn 0.8195 0.5729 -0.0118
vn 0.8298 0.5578 0.0115
vn -0.5622 -0.1590 0.8115
vn -0.7439 -0.1403 0.6533
vn -0.9999 0.0000 0.0112
vn -0.9863 -0.1647 -0.0029
vn -0.9863 0.1647 -0.0029
vn -0.8658 -0.5003 -0.0013
vn 0.6150 -0.7884 0.0071
vn 0.8816 -0.4718 0.0072
vn 0.4577 -0.8889 0.0139
vn 0.4832 -0.8755 -0.0024
vn 0.9795 -0.2011 0.0081
vn 0.9911 -0.1330 -0.0037
vn 0.9513 -0.3016 0.0631
vn 1.0000 0.0000 0.0035
vn 1.0000 0.0000 0.0032
vn -0.3778 0.9254 0.0293
vn -0.3573 0.9337 -0.0199
vn 0.7312 -0.6821 0.0008
vn 0.4478 -0.3346 0.8292
vn -0.2974 0.0000 0.9547
vn 0.7460 -0.1299 0.6532
vn 0.9510 0.0320 0.3074
vn 0.9483 0.0130 0.3169
vn -0.8069 0.0000 0.5907
vn 0.5021 -0.1522 0.8513
vn 0.6150 0.7884 0.0071
vn -0.8107 0.5853 -0.0120
vn -0.9489 0.0258 0.3143
vn -0.2153 0.9765 -0.0038
vn 0.0000 0.9998 -0.0203
vn -0.2797 -0.3413 0.8974
vn 0.9911 0.1330 -0.0037
vn 0.7902 0.0000 0.6128
vn 0.4577 0.8889 0.0139
vn 0.4832 0.8755 -0.0024
vn 0.4600 0.8877 -0.0180
vn 0.2153 0.9765 -0.0038
vn 0.3989 0.9170 0.0029
vn -0.9450 0.0099 0.3269
vn -0.8931 -0.0540 0.4466
vn -0.9706 -0.0277 0.2391
vn -0.7530 0.6580 -0.0088
vn -0.7408 0.6717 0.0038
vn -0.8658 0.5003 -0.0013
vn 0.0959 0.3355 0.9371
vn 0.1043 0.1745 0.9791
vn 0.8853 0.4649 0.0045
vn 0.1011 0.0000 0.9948
vn 0.0000 0.9999 0.0126
vn -0.2826 -0.1718 0.9437
vn 0.0959 -0.3355 0.9371
vn 0.1043 -0.1745 0.9791
vn 0.7312 0.6821 0.0008
vn 0.7662 0.0811 0.6374
vn 0.8929 0.0546 0.4469
vn 0.9705 0.0277 0.2392
vn 0.9892 0.0203 0.1448
vn 0.5646 0.0973 0.8196
vn 0.3702 0.1135 0.9220
vn -0.5681 0.1038 0.8163
vn -0.7676 0.0790 0.6359
vn 0.2054 0.1151 0.9719
vn -0.9896 0.0206 0.1422
vn -0.0038 0.1183 0.9930
vn -0.1893 -0.1179 0.9748
vn -0.3724 -0.1096 0.9216
vn -0.5276 0.8495 0.0032
vn -0.6189 0.7850 0.0249
vn 0.5985 0.8010 -0.0094
vn 0.7662 -0.0811 0.6374
vn 0.8929 -0.0546 0.4469
vn 0.9705 -0.0277 0.2392
vn 0.9896 -0.0205 0.1421
vn -0.0038 -0.1183 0.9930
vn 0.5646 -0.0973 0.8196
vn 0.3702 -0.1135 0.9220
vn -0.5681 -0.1038 0.8163
vn -0.7676 -0.0790 0.6359
vn -0.9896 -0.0206 0.1422
vn 0.2054 -0.1151 0.9719
vn -1.0000 0.0000 -0.0038
usemtl None
s 1
f 1/1/1 35/2/2 32/3/3
f 1/1/1 51/4/4 35/2/2
f 4/5/5 52/6/6 42/7/7
f 13/8/8 11/9/9 132/10/10
f 4/5/5 6/11/11 61/12/12
f 49/13/13 24/14/14 37/15/15
f 28/16/16 39/17/17 48/18/18
f 28/19/16 32/3/3 39/20/17
f 25/21/19 54/22/20 50/23/21
f 43/24/22 27/25/23 29/26/24
f 118/27/25 63/28/26 57/29/27
f 124/30/28 127/31/29 97/32/30
f 126/33/31 125/34/32 98/35/33
f 119/36/34 121/37/35 96/38/36
f 129/39/37 15/40/38 89/41/39
f 70/42/40 10/43/41 74/44/42
f 96/38/36 60/45/43 93/46/44
f 94/47/45 57/29/27 62/48/46
f 93/46/44 58/49/47 98/35/33
f 40/50/48 2/51/49 47/52/50
f 62/48/46 109/53/51 106/54/52
f 59/55/53 103/56/54 112/57/55
f 55/58/56 4/5/5 42/7/7
f 1/1/1 55/58/56 51/4/4
f 25/21/19 29/26/24 27/25/23
f 4/5/5 46/59/57 52/6/6
f 3/60/58 31/61/59 34/62/60
f 5/63/61 38/64/62 41/65/63
f 11/9/9 78/66/64 88/67/65
f 40/68/48 31/61/59 2/69/49
f 34/62/60 38/64/62 3/60/58
f 68/70/66 21/71/67 75/72/68
f 85/73/69 73/74/70 17/75/71
f 21/76/67 84/77/72 75/78/68
f 18/79/73 86/80/74 89/41/39
f 118/81/25 92/82/75 134/83/76
f 115/84/77 7/85/78 14/86/79
f 41/65/63 45/87/80 5/63/61
f 24/14/14 30/88/81 37/15/15
f 33/89/82 24/14/14 49/13/13
f 48/18/18 26/90/83 28/16/16
f 30/88/81 26/90/83 44/91/84
f 22/92/85 25/21/19 23/93/86
f 27/25/23 47/52/50 2/51/49
f 53/94/87 22/92/85 33/89/82
f 116/95/88 23/93/86 117/96/89
f 8/97/90 68/70/66 71/98/91
f 50/23/21 36/99/92 25/21/19
f 119/36/34 138/100/93 121/37/35
f 118/101/25 94/47/45 120/102/94
f 136/103/95 140/104/96 95/105/97
f 118/27/25 123/106/98 63/28/26
f 138/100/93 136/103/95 131/107/99
f 66/108/100 17/75/71 73/74/70
f 11/9/9 88/67/65 82/109/101
f 118/27/25 134/83/76 123/106/98
f 124/30/28 139/110/102 127/31/29
f 10/43/41 67/111/103 9/112/104
f 118/101/25 120/102/94 137/113/105
f 16/114/106 116/95/88 117/96/89
f 128/115/107 98/35/33 125/34/32
f 128/115/107 140/104/96 136/103/95
f 15/40/38 16/114/106 18/79/73
f 84/77/72 19/116/108 80/117/109
f 20/118/110 83/119/111 79/120/112
f 130/121/113 154/122/114 145/123/115
f 12/124/116 74/44/42 10/43/41
f 66/108/100 80/117/109 19/116/108
f 134/83/76 130/121/113 139/110/102
f 77/125/117 12/124/116 81/126/118
f 63/28/26 97/32/30 59/55/53
f 60/45/43 64/127/119 56/128/120
f 69/129/121 85/73/69 17/75/71
f 122/130/122 96/38/36 121/37/35
f 76/131/123 9/112/104 67/111/103
f 133/132/124 135/133/125 91/134/126
f 131/107/99 135/135/125 138/100/93
f 86/80/74 18/79/73 72/136/127
f 62/48/46 64/137/119 94/47/45
f 58/49/47 110/138/128 101/139/129
f 58/49/47 101/139/129 107/140/130
f 102/141/131 58/49/47 107/140/130
f 106/54/52 56/142/120 62/48/46
f 110/138/128 60/45/43 105/143/132
f 60/45/43 104/144/133 105/143/132
f 100/145/134 62/48/46 57/29/27
f 111/146/135 57/29/27 63/28/26
f 104/144/133 56/128/120 113/147/136
f 108/148/137 59/55/53 61/12/12
f 56/128/120 99/149/138 113/147/136
f 111/146/135 59/55/53 112/57/55
f 126/33/31 140/104/96 125/34/32
f 137/113/105 133/132/124 92/82/75
f 122/130/122 138/100/93 135/135/125
f 133/132/124 148/150/139 151/151/140
f 97/32/30 123/106/98 124/30/28
f 8/97/90 87/152/141 90/153/142
f 94/47/45 122/154/122 120/102/94
f 76/155/123 83/119/111 9/156/104
f 90/153/142 11/9/9 8/97/90
f 93/46/44 119/36/34 96/38/36
f 18/79/73 65/157/143 72/136/127
f 94/47/45 118/81/25 57/29/27
f 61/12/12 97/32/30 127/158/29
f 53/94/87 98/35/33 58/49/47
f 79/120/112 65/157/143 20/118/110
f 8/97/90 71/98/91 87/152/141
f 4/5/5 7/85/78 115/84/77
f 152/159/144 95/105/97 143/160/145
f 95/105/97 149/161/146 143/160/145
f 144/162/147 95/105/97 129/39/37
f 148/150/139 91/134/126 141/163/148
f 152/159/144 131/107/99 136/103/95
f 131/107/99 147/164/149 146/165/150
f 142/166/151 133/132/124 151/151/140
f 153/167/152 92/82/75 142/166/151
f 146/165/150 91/168/126 131/107/99
f 150/169/153 130/121/113 145/123/115
f 91/168/126 155/170/154 141/171/148
f 130/121/113 153/167/152 154/122/114
f 139/110/102 123/106/98 134/83/76
f 137/113/105 122/154/122 135/133/125
f 136/103/95 119/36/34 128/115/107
f 137/113/105 92/82/75 118/101/25
f 132/10/10 139/110/102 130/121/113
f 129/39/37 140/104/96 126/172/31
f 115/84/77 14/173/79 11/9/9
f 11/9/9 82/109/101 132/10/10
f 132/10/10 81/126/118 13/8/8
f 81/126/118 12/124/116 13/8/8
f 6/11/11 5/63/61 45/87/80
f 61/12/12 46/59/57 4/5/5
f 6/11/11 45/87/80 61/12/12
f 28/19/16 1/1/1 32/3/3
f 129/39/37 69/129/121 15/40/38
f 69/129/121 17/75/71 15/40/38
f 15/40/38 18/79/73 89/41/39
f 55/58/56 1/1/1 4/5/5
f 25/21/19 36/99/92 29/26/24
f 3/60/58 2/69/49 31/61/59
f 5/63/61 3/60/58 38/64/62
f 68/70/66 8/97/90 21/71/67
f 24/14/14 26/90/83 30/88/81
f 48/18/18 44/91/84 26/90/83
f 27/25/23 43/24/22 47/52/50
f 53/94/87 54/22/20 25/21/19
f 22/92/85 24/14/14 33/89/82
f 53/94/87 25/21/19 22/92/85
f 116/95/88 22/92/85 23/93/86
f 66/108/100 19/116/108 17/75/71
f 10/43/41 70/42/40 67/111/103
f 16/114/106 15/40/38 116/95/88
f 128/115/107 93/46/44 98/35/33
f 128/115/107 125/34/32 140/104/96
f 84/77/72 21/76/67 19/116/108
f 20/118/110 9/156/104 83/119/111
f 12/124/116 77/125/117 74/44/42
f 60/45/43 96/38/36 64/127/119
f 122/130/122 64/127/119 96/38/36
f 133/132/124 137/113/105 135/133/125
f 131/107/99 91/168/126 135/135/125
f 62/48/46 56/142/120 64/137/119
f 58/49/47 93/46/44 110/138/128
f 102/141/131 53/94/87 58/49/47
f 106/54/52 99/174/138 56/142/120
f 110/138/128 93/46/44 60/45/43
f 100/145/134 109/53/51 62/48/46
f 111/146/135 100/145/134 57/29/27
f 104/144/133 60/45/43 56/128/120
f 108/148/137 103/56/54 59/55/53
f 111/146/135 63/28/26 59/55/53
f 122/130/122 121/37/35 138/100/93
f 97/32/30 63/28/26 123/106/98
f 94/47/45 64/137/119 122/154/122
f 90/153/142 78/66/64 11/9/9
f 93/46/44 128/115/107 119/36/34
f 18/79/73 20/118/110 65/157/143
f 61/12/12 59/55/53 97/32/30
f 53/94/87 126/33/31 98/35/33
f 114/175/155 6/11/11 115/84/77
f 6/11/11 4/5/5 115/84/77
f 152/159/144 136/103/95 95/105/97
f 144/162/147 149/161/146 95/105/97
f 148/150/139 133/132/124 91/134/126
f 152/159/144 147/164/149 131/107/99
f 142/166/151 92/82/75 133/132/124
f 153/167/152 134/83/76 92/82/75
f 146/165/150 155/170/154 91/168/126
f 150/169/153 132/10/10 130/121/113
f 130/121/113 134/83/76 153/167/152
f 139/110/102 124/30/28 123/106/98
f 137/113/105 120/102/94 122/154/122
f 136/103/95 138/100/93 119/36/34
f 132/10/10 127/31/29 139/110/102
f 129/39/37 95/105/97 140/104/96
f 11/9/9 13/8/8 115/84/77
f 13/8/8 114/175/155 115/84/77
