# Blender v2.91.2 OBJ File: 'cylinder.blend'
# www.blender.org
mtllib cylinder_out_bis.mtl
o out
v 0.000000 1.163586 -1.645799
v 0.000000 1.163586 1.645799
v 0.227004 1.141228 -1.645799
v 0.227004 1.141228 1.645799
v 0.445285 1.075014 -1.645799
v 0.445285 1.075014 1.645799
v 0.646454 0.967487 -1.645799
v 0.646454 0.967487 1.645799
v 0.822780 0.822780 -1.645799
v 0.822780 0.822780 1.645799
v 0.967487 0.646454 -1.645799
v 0.967487 0.646454 1.645799
v 1.075014 0.445285 -1.645799
v 1.075014 0.445285 1.645799
v 1.141228 0.227004 -1.645799
v 1.141228 0.227004 1.645799
v 1.163586 0.000000 -1.645799
v 1.163586 0.000000 1.645799
v 1.141229 -0.227004 -1.645799
v 1.141229 -0.227004 1.645799
v 1.075014 -0.445285 -1.645799
v 1.075014 -0.445285 1.645799
v 0.967487 -0.646454 -1.645799
v 0.967487 -0.646454 1.645799
v 0.822780 -0.822780 -1.645799
v 0.822780 -0.822780 1.645799
v 0.646454 -0.967487 -1.645799
v 0.646454 -0.967487 1.645799
v 0.445285 -1.075014 -1.645799
v 0.445285 -1.075014 1.645799
v 0.227004 -1.141229 -1.645799
v 0.227004 -1.141229 1.645799
v -0.000000 -1.163586 -1.645799
v -0.000000 -1.163586 1.645799
v -0.227005 -1.141228 -1.645799
v -0.227005 -1.141228 1.645799
v -0.445286 -1.075014 -1.645799
v -0.445286 -1.075014 1.645799
v -0.646455 -0.967486 -1.645799
v -0.646455 -0.967486 1.645799
v -0.822780 -0.822779 -1.645799
v -0.822780 -0.822779 1.645799
v -0.967487 -0.646453 -1.645799
v -0.967487 -0.646453 1.645799
v -1.075014 -0.445284 -1.645799
v -1.075014 -0.445284 1.645799
v -1.141229 -0.227003 -1.645799
v -1.141229 -0.227003 1.645799
v -1.163586 0.000001 -1.645799
v -1.163586 0.000001 1.645799
v -1.141228 0.227006 -1.645799
v -1.141228 0.227006 1.645799
v -1.075013 0.445286 -1.645799
v -1.075013 0.445286 1.645799
v -0.967486 0.646455 -1.645799
v -0.967486 0.646455 1.645799
v -0.822779 0.822781 -1.645799
v -0.822779 0.822781 1.645799
v -0.646453 0.967488 -1.645799
v -0.646453 0.967488 1.645799
v -0.445284 1.075014 -1.645799
v -0.445284 1.075014 1.645799
v -0.227003 1.141229 -1.645799
v -0.227003 1.141229 1.645799
v -0.646453 0.967488 0.533109
v -0.646453 0.967488 -0.980660
v 0.227004 1.141228 0.747329
v 0.227004 1.141228 -1.194880
v -0.967486 0.646455 0.015156
v -0.967486 0.646455 -0.462707
v 0.445285 1.075014 0.666643
v 0.445285 1.075014 -1.114194
v -0.822779 0.822781 0.342385
v -0.822779 0.822781 -0.789935
v 0.646454 0.967487 0.533108
v 0.646454 0.967487 -0.980659
v 0.000000 1.163586 -1.223776
v 0.000000 1.163586 0.776225
v 0.822780 0.822780 0.342383
v 0.822780 0.822780 -0.789934
v -0.445284 1.075014 0.666644
v -0.445284 1.075014 -1.114195
v 0.967487 0.646454 0.015154
v 0.967487 0.646454 -0.462704
v -0.227003 1.141229 0.747329
v -0.227003 1.141229 -1.194880
v -0.923880 0.699590 -0.606459
v -0.923880 0.699590 0.158908
v -0.555570 1.016065 -1.055245
v 0.555571 1.016065 -1.055245
v 0.831469 0.812192 0.331795
v 0.923880 0.699589 -0.606458
v -1.000000 0.585626 -0.223775
v -0.980785 0.621574 -0.028685
v -0.707107 0.917710 -0.930882
v 0.382684 1.094004 -1.147655
v 0.707107 0.917710 -0.930882
v 0.980785 0.621575 -0.028684
v 1.000000 0.585626 -0.223775
v -0.646453 2.784589 -1.198161
v 0.227004 2.958330 -1.412380
v -0.967486 2.463557 -0.680208
v 0.445285 2.892115 -1.331694
v -0.822779 2.639882 -1.007436
v 0.646454 2.784588 -1.198159
v 0.000000 2.980688 -1.441276
v 0.822780 2.639881 -1.007434
v -0.445284 2.892116 -1.331695
v 0.967487 2.463555 -0.680205
v -0.227003 2.958330 -1.412380
v -0.923880 2.516691 -0.823959
v -0.555570 2.833167 -1.272745
v 0.555571 2.833166 -1.272745
v 0.923880 2.516690 -0.823959
v -1.000000 2.402727 -0.441276
v -0.707107 2.734812 -1.148383
v 0.382684 2.911105 -1.365155
v 0.707107 2.734811 -1.148382
v 1.000000 2.402727 -0.441275
v -0.741398 0.001028 -0.654872
v 0.260345 0.100738 -0.912037
v -1.109582 -0.145777 -0.063446
v 0.510685 0.062444 -0.814938
v -0.943622 -0.078248 -0.428971
v 0.741400 0.001027 -0.654871
v -0.000000 0.113162 -0.946396
v 0.943623 -0.078249 -0.428970
v -0.510683 0.062445 -0.814939
v 1.109583 -0.145778 -0.063443
v -0.260343 0.100738 -0.912038
v -1.059571 -0.139266 -0.216565
v -0.637168 0.024404 -0.740757
v 0.637168 0.024403 -0.740757
v 1.059571 -0.139267 -0.216564
v -1.146872 -0.130437 0.182630
v -0.810961 -0.031095 -0.592232
v 0.438889 0.070263 -0.852610
v 0.810961 -0.031095 -0.592232
v 1.146871 -0.130436 0.182631
v -0.646453 -0.831395 -0.213748
v 0.227004 -0.789842 -0.486419
v 0.445285 -0.806161 -0.383325
v 0.646454 -0.831395 -0.213746
v 0.000000 -0.785166 -0.522654
v -0.445284 -0.806161 -0.383326
v -0.227003 -0.789841 -0.486419
v -0.555570 -0.827206 -0.302659
v 0.555571 -0.827206 -0.302659
v -0.707107 -0.849165 -0.145632
v 0.382684 -0.806700 -0.421795
v 0.707107 -0.849165 -0.145631
v -0.822779 -0.824600 0.003580
v 0.555571 -1.017660 0.149038
v -1.000000 -0.588610 0.500777
v 0.707107 -0.919530 0.021250
v 0.227004 -1.142615 0.350247
v -0.555570 -1.017660 0.149038
v 0.784221 -0.856244 -0.032564
v 1.000000 -0.588610 0.500778
v -0.784221 -0.856244 -0.032564
v 0.000000 -1.164999 0.378190
v -0.445284 -1.076484 0.257793
v -0.967486 -0.648672 0.265927
v -0.707107 -0.919530 0.021251
v 0.923880 -0.701806 0.136836
v 0.967487 -0.647239 0.264991
v 0.382684 -1.095473 0.263082
v -0.923880 -0.701807 0.136835
v -0.646453 -0.969083 0.112803
v 0.646454 -0.968661 0.111805
v 0.822780 -0.823779 0.003106
v -0.227003 -1.142642 0.350312
v 0.445285 -1.076319 0.257404
v -0.920648 0.372266 -0.609453
v -0.791217 0.443308 -0.761557
v -0.254005 0.620983 -1.053459
v 1.033775 0.280161 -0.411511
v 0.920649 0.372266 -0.609452
v 0.428204 0.582133 -1.000132
v 0.498252 0.568729 -0.964566
v 0.621656 0.520234 -0.898001
v 0.723350 0.484257 -0.817765
v 1.118950 0.227595 -0.020572
v -1.082569 0.250339 -0.263076
v 0.254007 0.620983 -1.053459
v -0.621655 0.520234 -0.898001
v -0.498250 0.568729 -0.964567
v 1.082569 0.250338 -0.263073
v -1.118950 0.227594 -0.020573
v -0.723348 0.484258 -0.817766
v -1.033775 0.280162 -0.411512
v 0.791218 0.443308 -0.761557
v -0.000000 0.638374 -1.085086
vt 0.968750 0.500000
vt 1.000000 0.564106
vt 1.000000 0.500000
vt 0.937500 0.500000
vt 0.946462 0.575669
vt 0.968750 0.568495
vt 0.906250 0.500000
vt 0.920368 0.589706
vt 0.937500 0.580752
vt 0.875000 0.500000
vt 0.895501 0.608597
vt 0.906250 0.601036
vt 0.843750 0.500000
vt 0.853167 0.657878
vt 0.875000 0.630008
vt 0.093750 0.830980
vt 0.125000 1.000000
vt 0.125000 0.802009
vt 0.853167 0.657878
vt 0.968750 0.863521
vt 0.937500 1.000000
vt 0.968750 1.000000
vt 0.906250 0.830980
vt 0.875000 1.000000
vt 0.906250 1.000000
vt 1.000000 0.867910
vt 1.000000 1.000000
vt 0.937500 0.851264
vt 0.625000 0.500000
vt 0.656250 1.000000
vt 0.656250 0.500000
vt 0.593750 0.500000
vt 0.625000 1.000000
vt 0.562500 0.500000
vt 0.593750 1.000000
vt 0.531250 0.500000
vt 0.562500 1.000000
vt 0.500000 0.500000
vt 0.531250 1.000000
vt 0.468750 0.500000
vt 0.500000 1.000000
vt 0.437500 0.500000
vt 0.468750 1.000000
vt 0.406250 0.500000
vt 0.437500 1.000000
vt 0.375000 0.500000
vt 0.406250 1.000000
vt 0.343750 0.500000
vt 0.375000 1.000000
vt 0.312500 0.500000
vt 0.343750 1.000000
vt 0.718750 0.500000
vt 0.750000 1.000000
vt 0.750000 0.500000
vt 0.687500 0.500000
vt 0.718750 1.000000
vt 0.687500 1.000000
vt 0.873124 0.800400
vt 0.843750 1.000000
vt 0.875000 0.802009
vt 0.834301 0.716008
vt 0.812500 1.000000
vt 0.839885 0.745643
vt 0.146833 0.657878
vt 0.156250 0.500000
vt 0.125000 0.630007
vt 0.104500 0.608597
vt 0.125000 0.500000
vt 0.093750 0.601036
vt 0.079632 0.589706
vt 0.093750 0.500000
vt 0.062500 0.580752
vt 0.062500 0.500000
vt 0.031250 0.568495
vt 0.031250 0.500000
vt 0.000000 0.564106
vt 0.187500 0.500000
vt 0.218750 1.000000
vt 0.218750 0.500000
vt 0.165699 0.716008
vt 0.160115 0.745643
vt 0.187500 1.000000
vt 0.031250 0.863521
vt 0.062500 1.000000
vt 0.062500 0.851264
vt 0.781250 1.000000
vt 0.781250 0.500000
vt 0.281250 0.500000
vt 0.312500 1.000000
vt 0.250000 0.500000
vt 0.281250 1.000000
vt 0.250000 1.000000
vt 0.156250 1.000000
vt 0.156250 0.752302
vt 0.146833 0.774138
vt 0.093750 1.000000
vt 0.812500 0.500000
vt 0.906250 0.601036
vt 0.843750 0.679714
vt 0.834301 0.716008
vt 0.156250 0.679714
vt 0.156250 0.679714
vt 0.946462 0.575669
vt 0.079632 0.589706
vt 0.920368 0.589706
vt 0.031250 0.568495
vt 0.093750 0.601036
vt 0.125000 0.630007
vt 1.000000 0.564106
vt 0.968750 0.568495
vt 0.875000 0.630008
vt 0.156250 0.679714
vt 0.104500 0.608597
vt 0.895501 0.608597
vt 0.000000 0.564106
vt 0.000000 0.564106
vt 0.843750 0.679714
vt 0.843750 0.679714
vt 0.125000 0.630007
vt 0.875000 0.630008
vt 0.853167 0.657878
vt 0.937500 0.580752
vt 0.104500 0.608597
vt 0.104500 0.608597
vt 0.031250 0.568495
vt 0.000000 0.564106
vt 0.834301 0.716008
vt 0.946462 0.575669
vt 0.937500 0.580752
vt 0.946462 0.575669
vt 0.920368 0.589706
vt 0.906250 0.601036
vt 0.920368 0.589706
vt 0.968750 0.568495
vt 0.968750 0.568495
vt 0.079632 0.589706
vt 0.062500 0.580752
vt 0.062500 0.580752
vt 0.937500 0.580752
vt 0.093750 0.601036
vt 0.079632 0.589706
vt 0.165699 0.716008
vt 0.031250 0.568495
vt 0.895501 0.608597
vt 0.895501 0.608597
vt 0.146833 0.657878
vt 0.146833 0.657878
vt 0.093750 0.601036
vt 0.906250 0.601036
vt 0.853167 0.657878
vt 0.843750 0.679714
vt 0.156250 0.679714
vt 0.146833 0.657878
vt 0.125000 0.630007
vt 0.118166 0.622870
vt 0.104500 0.608597
vt 0.937500 0.580752
vt 0.062500 0.580752
vt 0.062500 0.580752
vt 0.031250 0.568495
vt 0.853167 0.657878
vt 0.079632 0.589706
vt 0.875000 0.630008
vt 0.031250 0.568495
vt 0.946462 0.575669
vt 0.968750 0.568495
vt 0.165699 0.716008
vt 1.000000 0.564106
vt 0.968750 0.568495
vt 0.895501 0.608597
vt 0.875000 0.630008
vt 0.125000 0.630007
vt 0.906250 0.601036
vt 0.093750 0.601036
vt 0.920368 0.589706
vt 1.000000 0.564106
vt 0.895501 0.608597
vt 0.104500 0.608597
vt 0.920368 0.589706
vt 0.079632 0.589706
vt 0.946462 0.575669
vt 0.881834 0.622871
vt 0.062500 0.580752
vt 0.165699 0.716008
vt 0.156250 0.679714
vt 0.843750 0.679714
vt 0.834301 0.716008
vt 0.000000 0.867910
vt 0.031250 1.000000
vt 0.146833 0.657878
vt 0.843750 0.752302
vt 0.000000 0.500000
vt 1.000000 0.564106
vt 0.000000 0.564106
vt 0.000000 0.564106
vt 1.000000 0.564106
vt 0.906250 0.601036
vt 0.093750 0.601036
vt 0.937500 0.580752
vt 0.165699 0.716008
vt 0.834301 0.716008
vt 0.000000 1.000000
vn -0.1951 -0.9808 0.0000
vn 0.0000 -0.3455 0.9384
vn 0.0000 -1.0000 0.0000
vn -0.3827 -0.9239 0.0000
vn -0.4404 -0.3080 0.8433
vn -0.2642 -0.3152 0.9115
vn -0.5556 -0.8314 0.0000
vn -0.6269 -0.2669 0.7320
vn -0.5475 -0.2563 0.7966
vn -0.7071 -0.7071 0.0000
vn -0.7702 -0.2219 0.5979
vn -0.7122 -0.2134 0.6687
vn -0.8314 -0.5556 0.0000
vn -0.9297 -0.2368 0.2822
vn -0.8730 -0.1989 0.4453
vn 0.5855 -0.8106 0.0000
vn 0.7071 -0.7071 0.0000
vn 0.7390 -0.6736 0.0000
vn -0.8940 0.0532 0.4449
vn -0.2085 -0.9780 0.0000
vn -0.5855 -0.8106 0.0000
vn -0.4063 -0.9137 0.0000
vn -0.7071 0.7071 0.0000
vn -0.8314 0.5556 0.0000
vn -0.5556 0.8314 0.0000
vn -0.3827 0.9239 0.0000
vn -0.1951 0.9808 0.0000
vn 0.0000 1.0000 0.0000
vn 0.1951 0.9808 0.0000
vn 0.3827 0.9239 0.0000
vn 0.5556 0.8314 0.0000
vn 0.7071 0.7071 0.0000
vn 0.8314 0.5556 0.0000
vn 0.9239 0.3827 0.0000
vn -0.9808 0.1951 0.0000
vn -1.0000 0.0000 0.0000
vn -0.9239 0.3827 0.0000
vn -0.7730 -0.6344 0.0000
vn -0.7368 -0.6761 0.0000
vn -0.9452 -0.3224 0.0512
vn -0.9239 -0.3827 0.0000
vn -0.8819 -0.4714 0.0000
vn 0.9297 -0.2368 0.2822
vn 0.8314 -0.5556 0.0000
vn 0.8730 -0.1989 0.4453
vn 0.7702 -0.2219 0.5979
vn 0.7122 -0.2134 0.6687
vn 0.6269 -0.2669 0.7320
vn 0.5556 -0.8314 0.0000
vn 0.4961 -0.2704 0.8251
vn 0.3827 -0.9239 0.0000
vn 0.2923 -0.3244 0.8996
vn 0.1951 -0.9808 0.0000
vn 0.9239 -0.3827 0.0000
vn 0.9808 -0.1951 0.0000
vn 0.9452 -0.3224 0.0512
vn 0.8819 -0.4714 0.0000
vn 0.2085 -0.9780 0.0000
vn 0.4063 -0.9137 0.0000
vn -0.9808 -0.1951 0.0000
vn 0.9808 0.1951 0.0000
vn 1.0000 0.0000 0.0000
vn 0.8679 -0.4967 0.0000
vn 0.7730 -0.6344 0.0000
vn -0.5951 0.0955 0.7979
vn -0.9730 -0.0705 0.2199
vn -0.9874 -0.0709 0.1415
vn 0.9730 -0.0705 0.2199
vn 0.9647 -0.2258 0.1352
vn -0.3326 0.1121 0.9364
vn 0.4875 0.1038 0.8669
vn -0.4875 0.1038 0.8669
vn 0.1953 0.2514 0.9480
vn 0.5951 0.0955 0.7979
vn 0.7920 0.1190 0.5988
vn 0.0000 0.2561 0.9666
vn -0.1680 0.2537 0.9526
vn -0.7808 0.0742 0.6203
vn 0.9698 0.0290 0.2421
vn 0.6362 0.0917 0.7660
vn -0.6362 0.0917 0.7660
vn 0.0000 0.3396 0.9405
vn -0.9698 0.0290 0.2421
vn -0.9647 -0.2258 0.1352
vn 0.7808 0.0742 0.6203
vn -0.7920 0.1190 0.5988
vn -0.9080 0.0358 0.4173
vn -0.4361 0.1069 0.8935
vn 0.6081 0.3452 0.7149
vn 0.6345 0.1903 0.7490
vn 0.2016 0.3399 0.9186
vn 0.0000 0.7049 0.7093
vn -0.9901 0.0166 0.1390
vn -0.3287 0.3432 0.8798
vn -0.3947 0.2371 0.8877
vn -0.3233 0.2420 0.9148
vn -0.4762 0.3450 0.8088
vn -0.5515 0.2139 0.8063
vn -0.4799 0.2236 0.8483
vn -0.1752 0.1170 0.9775
vn -0.1764 0.3406 0.9235
vn 0.4799 0.2236 0.8483
vn 0.3486 0.3431 0.8722
vn 0.3385 0.2439 0.9088
vn -0.4026 0.3397 0.8500
vn 0.5515 0.2139 0.8063
vn 0.4762 0.3450 0.8088
vn 0.9901 0.0166 0.1390
vn 0.2005 0.1164 0.9727
vn -0.6081 0.3452 0.7149
vn -0.6345 0.1904 0.7490
vn 0.8512 0.3083 0.4248
vn 0.9080 0.0358 0.4173
vn 0.5468 0.3402 0.7650
vn -0.5468 0.3402 0.7650
vn -0.8512 0.3083 0.4248
vn -0.9514 0.2143 0.2209
vn 0.9514 0.2142 0.2210
vn 0.8857 0.3689 0.2819
vn 0.8102 0.3748 0.4507
vn 0.6766 0.5446 0.4955
vn 0.4913 0.7051 0.5112
vn -0.3627 0.6946 0.6212
vn 0.2938 0.7079 0.6422
vn 0.1122 0.9156 0.3861
vn 0.1773 0.7056 0.6861
vn -0.8858 0.3689 0.2814
vn 0.3907 0.7127 0.5825
vn -0.7498 0.3194 0.5795
vn 0.0707 0.9191 0.3875
vn -0.2822 0.7141 0.6406
vn -0.1516 0.7070 0.6907
vn 0.9874 -0.0709 0.1415
vn -0.0498 0.9203 0.3880
vn -0.4914 0.7051 0.5112
vn -0.8101 0.3747 0.4509
vn 0.7498 0.3194 0.5795
vn -0.4807 0.6810 0.5524
vn 0.4807 0.6810 0.5524
vn -0.3907 0.7127 0.5825
vn -0.2334 0.8960 0.3778
vn 0.2333 0.8960 0.3778
vn -0.1736 0.9074 0.3826
vn 0.1739 0.9074 0.3826
vn -0.1317 0.9134 0.3851
vn -0.6761 0.5454 0.4953
vn 0.3544 0.1111 0.9285
vn 0.9665 0.2261 0.1216
vn 0.9314 0.3485 0.1053
vn -0.9313 0.3487 0.1050
vn -0.9663 0.2266 0.1218
vn 0.8940 0.0532 0.4449
vn -0.8639 -0.5035 0.0000
vn 0.0000 0.1188 0.9929
vn 0.0000 0.9214 0.3885
vn -0.2883 0.8823 0.3720
vn 0.2884 0.8823 0.3720
vn -0.2011 0.9026 0.3806
vn 0.9417 0.3332 0.0451
vn -0.9413 0.3342 0.0467
usemtl None
s 1
f 3/1/1 77/2/2 1/3/3
f 5/4/4 96/5/5 68/6/6
f 7/7/7 90/8/8 72/9/9
f 9/10/10 97/11/11 76/12/12
f 11/13/13 92/14/14 80/15/15
f 65/16/16 58/17/17 73/18/18
f 114/19/19 80/15/15 92/14/14
f 67/20/20 6/21/4 4/22/1
f 75/23/21 10/24/10 8/25/7
f 78/26/3 4/22/1 2/27/3
f 71/28/22 8/25/7 6/21/4
f 25/29/23 24/30/24 23/31/24
f 27/32/25 26/33/23 25/29/23
f 29/34/26 28/35/25 27/32/25
f 31/36/27 30/37/26 29/34/26
f 33/38/28 32/39/27 31/36/27
f 35/40/29 34/41/28 33/38/28
f 37/42/30 36/43/29 35/40/29
f 39/44/31 38/45/30 37/42/30
f 41/46/32 40/47/31 39/44/31
f 43/48/33 42/49/32 41/46/32
f 45/50/34 44/51/33 43/48/33
f 19/52/35 18/53/36 17/54/36
f 21/55/37 20/56/35 19/52/35
f 23/31/24 22/57/37 21/55/37
f 91/58/38 12/59/13 79/60/39
f 99/61/40 14/62/41 98/63/42
f 87/64/43 55/65/44 74/66/45
f 95/67/46 57/68/17 66/69/47
f 89/70/48 59/71/49 82/72/50
f 61/73/51 86/74/52 82/72/50
f 63/75/53 77/76/2 86/74/52
f 53/77/54 52/78/55 51/79/55
f 93/80/56 94/81/57 54/82/54
f 85/83/58 62/84/51 81/85/59
f 17/54/36 16/86/60 15/87/60
f 47/88/61 46/89/34 45/50/34
f 49/90/62 48/91/61 47/88/61
f 51/79/55 50/92/62 49/90/62
f 56/93/44 69/94/63 88/95/64
f 81/85/59 60/96/49 65/16/16
f 15/87/60 14/62/41 13/97/41
f 105/98/65 90/8/8 76/12/12
f 99/61/40 188/99/66 183/100/67
f 93/80/56 184/101/68 70/102/69
f 117/103/70 68/6/6 96/5/5
f 82/72/50 112/104/71 89/70/48
f 113/105/72 72/9/9 90/8/8
f 82/72/50 176/106/73 86/74/52
f 89/70/48 100/107/74 66/69/47
f 87/64/43 174/108/75 74/66/45
f 68/6/6 193/109/76 185/110/77
f 107/111/78 97/11/11 80/15/15
f 87/64/43 102/112/79 70/102/69
f 66/69/47 116/113/80 95/67/46
f 118/114/81 76/12/12 97/11/11
f 176/106/73 126/115/82 193/116/76
f 109/117/83 92/14/14 84/118/84
f 95/67/46 104/119/85 74/66/45
f 92/14/14 178/120/86 177/121/87
f 103/122/88 96/5/5 72/9/9
f 174/108/75 136/123/89 175/124/90
f 130/125/91 144/126/92 126/115/82
f 119/127/93 84/118/84 99/61/40
f 137/128/94 180/129/95 179/130/96
f 133/131/97 182/132/98 181/133/99
f 101/134/100 77/2/2 68/6/6
f 121/135/101 179/130/96 185/110/77
f 186/136/102 128/137/103 187/138/104
f 123/139/105 181/133/99 180/129/95
f 190/140/106 132/141/107 186/136/102
f 70/102/69 115/142/108 93/80/56
f 77/76/2 110/143/109 86/74/52
f 138/144/110 178/120/86 192/145/111
f 184/101/68 131/146/112 191/147/113
f 175/124/90 120/148/114 190/140/106
f 125/149/115 192/145/111 182/132/98
f 134/150/116 188/99/66 177/121/87
f 129/151/117 183/100/67 188/99/66
f 122/152/118 168/153/119 131/146/112
f 152/154/120 160/155/121 149/156/122
f 142/157/123 133/131/97 123/139/105
f 132/141/107 145/158/124 128/137/103
f 162/159/125 146/160/126 145/158/124
f 165/161/127 129/151/117 134/150/116
f 120/148/114 147/162/128 132/141/107
f 127/163/129 177/121/87 178/120/86
f 172/164/130 144/126/92 146/160/126
f 150/165/131 123/139/105 137/128/94
f 141/166/132 137/128/94 121/135/101
f 189/167/133 122/152/118 184/101/68
f 144/168/92 156/169/134 141/166/132
f 151/170/135 171/171/136 127/163/129
f 191/147/113 124/172/137 174/108/75
f 143/173/138 138/144/110 125/149/115
f 136/123/89 140/174/139 120/148/114
f 148/175/140 125/149/115 133/131/97
f 126/176/82 185/110/77 193/109/76
f 143/173/138 155/177/141 151/170/135
f 164/178/142 140/174/139 149/156/122
f 153/179/143 143/173/138 148/175/140
f 142/157/123 153/179/143 148/175/140
f 157/180/144 145/158/124 147/162/128
f 187/138/104 130/125/91 176/106/73
f 140/174/139 157/180/144 147/162/128
f 86/74/52 193/116/76 77/76/2
f 167/181/145 142/157/123 150/165/131
f 141/166/132 167/181/145 150/165/131
f 151/170/135 155/177/141 158/182/146
f 164/178/142 149/156/122 160/155/121
f 177/121/87 84/118/84 92/14/14
f 86/74/52 108/183/147 82/72/50
f 182/132/98 97/11/11 76/12/12
f 95/67/46 190/140/106 66/69/47
f 144/168/92 121/135/101 126/176/82
f 70/102/69 191/147/113 87/64/43
f 192/145/111 80/15/15 97/11/11
f 168/153/119 124/172/137 131/146/112
f 128/137/103 146/160/126 130/125/91
f 66/69/47 186/136/102 89/70/48
f 135/184/148 163/185/149 122/152/118
f 166/186/150 139/187/151 129/151/117
f 180/129/95 90/8/8 72/9/9
f 89/70/48 187/138/104 82/72/50
f 185/110/77 96/5/5 68/6/6
f 181/133/99 76/12/12 90/8/8
f 179/130/96 72/9/9 96/5/5
f 127/163/129 165/161/127 134/150/116
f 74/66/45 175/124/90 95/67/46
f 78/188/3 64/189/53 85/83/58
f 74/66/45 111/190/152 87/64/43
f 3/1/1 68/6/6 77/2/2
f 68/6/6 3/1/1 5/4/4
f 5/4/4 72/9/9 96/5/5
f 72/9/9 5/4/4 7/7/7
f 7/7/7 76/12/12 90/8/8
f 76/12/12 7/7/7 9/10/10
f 9/10/10 80/15/15 97/11/11
f 80/15/15 9/10/10 11/13/13
f 11/13/13 84/118/84 92/14/14
f 65/16/16 60/96/49 58/17/17
f 114/19/19 107/111/78 80/15/15
f 67/20/20 71/28/22 6/21/4
f 75/23/21 79/60/39 10/24/10
f 78/26/3 67/20/20 4/22/1
f 71/28/22 75/23/21 8/25/7
f 25/29/23 26/33/23 24/30/24
f 27/32/25 28/35/25 26/33/23
f 29/34/26 30/37/26 28/35/25
f 31/36/27 32/39/27 30/37/26
f 33/38/28 34/41/28 32/39/27
f 35/40/29 36/43/29 34/41/28
f 37/42/30 38/45/30 36/43/29
f 39/44/31 40/47/31 38/45/30
f 41/46/32 42/49/32 40/47/31
f 43/48/33 44/51/33 42/49/32
f 45/50/34 46/89/34 44/51/33
f 19/52/35 20/56/35 18/53/36
f 21/55/37 22/57/37 20/56/35
f 23/31/24 24/30/24 22/57/37
f 91/58/38 83/191/153 12/59/13
f 12/59/13 10/24/10 79/60/39
f 99/61/40 84/118/84 13/97/41
f 84/118/84 11/13/13 13/97/41
f 13/97/41 14/62/41 99/61/40
f 14/62/41 12/59/13 83/191/153
f 14/62/41 83/191/153 98/63/42
f 70/102/69 55/65/44 87/64/43
f 55/65/44 57/68/17 74/66/45
f 74/66/45 57/68/17 95/67/46
f 57/68/17 59/71/49 66/69/47
f 66/69/47 59/71/49 89/70/48
f 59/71/49 61/73/51 82/72/50
f 61/73/51 63/75/53 86/74/52
f 63/75/53 1/192/3 77/76/2
f 53/77/54 54/82/54 52/78/55
f 54/82/54 53/77/54 93/80/56
f 53/77/54 55/65/44 70/102/69
f 93/80/56 53/77/54 70/102/69
f 94/81/57 69/94/63 54/82/54
f 69/94/63 56/93/44 54/82/54
f 85/83/58 64/189/53 62/84/51
f 17/54/36 18/53/36 16/86/60
f 47/88/61 48/91/61 46/89/34
f 49/90/62 50/92/62 48/91/61
f 51/79/55 52/78/55 50/92/62
f 88/95/64 73/18/18 56/93/44
f 73/18/18 58/17/17 56/93/44
f 81/85/59 62/84/51 60/96/49
f 15/87/60 16/86/60 14/62/41
f 105/98/65 113/105/72 90/8/8
f 99/61/40 84/118/84 188/99/66
f 93/80/56 189/167/133 184/101/68
f 117/103/70 101/134/100 68/6/6
f 82/72/50 108/183/147 112/104/71
f 113/105/72 103/122/88 72/9/9
f 82/72/50 187/138/104 176/106/73
f 89/70/48 112/104/71 100/107/74
f 87/64/43 191/147/113 174/108/75
f 68/6/6 77/2/2 193/109/76
f 107/111/78 118/114/81 97/11/11
f 87/64/43 111/190/152 102/112/79
f 66/69/47 100/107/74 116/113/80
f 118/114/81 105/98/65 76/12/12
f 176/106/73 130/125/91 126/115/82
f 109/117/83 114/19/19 92/14/14
f 95/67/46 116/113/80 104/119/85
f 92/14/14 80/15/15 178/120/86
f 103/122/88 117/103/70 96/5/5
f 174/108/75 124/172/137 136/123/89
f 130/125/91 146/160/126 144/126/92
f 119/127/93 109/117/83 84/118/84
f 137/128/94 123/139/105 180/129/95
f 133/131/97 125/149/115 182/132/98
f 101/134/100 106/193/154 77/2/2
f 121/135/101 137/128/94 179/130/96
f 186/136/102 132/141/107 128/137/103
f 123/139/105 133/131/97 181/133/99
f 190/140/106 120/148/114 132/141/107
f 70/102/69 102/112/79 115/142/108
f 77/76/2 106/194/154 110/143/109
f 138/144/110 127/163/129 178/120/86
f 184/101/68 122/152/118 131/146/112
f 175/124/90 136/123/89 120/148/114
f 125/149/115 138/144/110 192/145/111
f 134/150/116 129/151/117 188/99/66
f 129/151/117 139/187/151 183/100/67
f 122/152/118 163/185/149 168/153/119
f 136/123/89 124/172/137 149/156/122
f 124/172/137 152/154/120 149/156/122
f 142/157/123 148/175/140 133/131/97
f 132/141/107 147/162/128 145/158/124
f 162/159/125 172/164/130 146/160/126
f 165/161/127 166/186/150 129/151/117
f 120/148/114 140/174/139 147/162/128
f 127/163/129 134/150/116 177/121/87
f 172/164/130 161/195/155 144/126/92
f 150/165/131 142/157/123 123/139/105
f 141/166/132 150/165/131 137/128/94
f 189/167/133 135/184/148 122/152/118
f 144/168/92 161/196/155 156/169/134
f 127/163/129 138/144/110 151/170/135
f 151/170/135 158/182/146 171/171/136
f 191/147/113 131/146/112 124/172/137
f 143/173/138 151/170/135 138/144/110
f 136/123/89 149/156/122 140/174/139
f 148/175/140 143/173/138 125/149/115
f 126/176/82 121/135/101 185/110/77
f 143/173/138 170/197/156 155/177/141
f 164/178/142 169/198/157 140/174/139
f 153/179/143 170/197/156 143/173/138
f 142/157/123 173/199/158 153/179/143
f 157/180/144 162/159/125 145/158/124
f 187/138/104 128/137/103 130/125/91
f 140/174/139 169/198/157 157/180/144
f 86/74/52 176/106/73 193/116/76
f 167/181/145 173/199/158 142/157/123
f 141/166/132 156/169/134 167/181/145
f 177/121/87 188/99/66 84/118/84
f 86/74/52 110/143/109 108/183/147
f 182/132/98 192/145/111 97/11/11
f 95/67/46 175/124/90 190/140/106
f 144/168/92 141/166/132 121/135/101
f 70/102/69 184/101/68 191/147/113
f 192/145/111 178/120/86 80/15/15
f 168/153/119 152/154/120 124/172/137
f 128/137/103 145/158/124 146/160/126
f 66/69/47 190/140/106 186/136/102
f 135/184/148 154/200/159 163/185/149
f 166/186/150 159/201/160 139/187/151
f 180/129/95 181/133/99 90/8/8
f 89/70/48 186/136/102 187/138/104
f 185/110/77 179/130/96 96/5/5
f 181/133/99 182/132/98 76/12/12
f 179/130/96 180/129/95 72/9/9
f 127/163/129 171/171/136 165/161/127
f 74/66/45 174/108/75 175/124/90
f 78/188/3 2/202/3 64/189/53
f 74/66/45 104/119/85 111/190/152
