# Blender v2.91.2 OBJ File: 'cylinder.blend'
# www.blender.org
mtllib cylinder_out_clean.mtl
o out.001
v 0.422086 1.096744 -1.645799
v 0.000001 1.174542 1.645799
v 0.532725 1.040133 1.645799
v 0.952547 0.691338 -1.645799
v 0.887291 0.758145 1.645799
v 1.075014 0.445285 1.645799
v 1.177352 0.029294 -1.645799
v 1.177352 -0.029294 1.645799
v 1.040133 -0.532725 -1.645799
v 1.020812 -0.568873 1.645799
v 0.678459 -0.962658 -1.645799
v 0.725409 -0.916218 1.645799
v 0.029294 -1.177352 -1.645799
v 0.319569 -1.124077 1.645799
v -0.134923 -1.160805 1.645799
v -0.532726 -1.040133 -1.645799
v -0.568874 -1.020811 1.645799
v -0.890216 -0.757092 -1.645799
v -0.916218 -0.725408 1.645799
v -1.112179 -0.358791 -1.645799
v -1.124077 -0.319568 1.645799
v -1.157659 0.246047 -1.645799
v -1.160805 0.134923 1.645799
v -0.881467 0.766257 -1.645799
v -0.958109 0.679304 1.645799
v -0.529619 1.039987 -1.645799
v -0.532723 1.040134 1.645799
v -0.114370 1.161229 -1.645799
v -0.646453 0.967488 0.533109
v -0.705710 0.916559 -0.929708
v 0.227004 1.141228 0.747329
v 0.227004 1.141228 -1.194880
v -0.967486 0.646455 -0.462707
v 0.445285 1.075014 0.666643
v 0.384572 1.100463 -1.147041
v -0.822779 0.822781 0.342385
v -0.822779 0.822781 -0.789935
v 0.646454 0.967487 0.533108
v 0.000000 1.163586 -1.223776
v 0.000000 1.163586 0.776225
v 0.831559 0.812053 0.331474
v 0.822780 0.822780 -0.789934
v -0.445284 1.075014 0.666644
v -0.529242 1.038604 -1.076001
v 0.983237 0.623251 -0.027443
v 0.967487 0.646454 -0.462704
v -0.227003 1.141229 0.747329
v -0.227003 1.141229 -1.194880
v -0.923880 0.699590 -0.606459
v -0.923880 0.699590 0.158908
v 0.555571 1.016065 -1.055245
v 0.923880 0.699589 -0.606458
v -1.000000 0.585626 -0.223775
v -0.972536 0.618081 -0.029677
v 0.705710 0.916558 -0.929708
v 1.000000 0.585626 -0.223775
v -0.103202 1.198733 -1.226775
v 0.659126 0.787120 -0.944454
v -0.938762 0.679994 -0.551152
v -0.989695 0.603268 -0.229155
v 0.942762 0.664318 -0.552966
v -0.590299 1.015710 -1.032681
v 0.994548 0.603269 -0.229154
v 0.340852 1.109306 -1.164078
v 0.867459 0.403449 -0.682636
v -0.125751 0.104381 -0.945580
v 0.943623 -0.078249 -0.428970
v 1.101304 -0.141236 -0.109101
v -1.101380 -0.141199 -0.108860
v -1.155096 -0.049439 0.132984
v -0.923747 -0.084231 -0.458945
v 0.750822 -0.003376 -0.653705
v 0.349362 -0.800443 -0.443454
v -0.099868 -0.785688 -0.523602
v -0.600435 -0.827195 -0.273006
v 0.649157 -0.834387 -0.216926
v 0.555571 -1.017660 0.149038
v -1.000000 -0.588610 0.500777
v 0.707107 -0.919530 0.021250
v 0.227004 -1.142615 0.350247
v -0.555570 -1.017660 0.149038
v 1.000000 -0.588610 0.500778
v -0.780961 -0.856288 -0.029214
v 0.000000 -1.164999 0.378190
v -0.445284 -1.076484 0.257793
v -0.967486 -0.648672 0.265927
v -0.707107 -0.919530 0.021251
v 0.923880 -0.701806 0.136836
v 0.967487 -0.647239 0.264991
v 0.382684 -1.095473 0.263082
v -0.923880 -0.701807 0.136835
v -0.646453 -0.969083 0.112803
v 0.646454 -0.968661 0.111805
v 0.782841 -0.856606 -0.031238
v -0.227003 -1.142642 0.350312
v 0.445285 -1.076319 0.257404
v -0.864602 0.407943 -0.686131
v 0.396497 0.082885 -0.880740
v 1.153978 -0.037424 0.126953
v -0.631477 0.078985 -0.775848
v 1.061151 0.271707 -0.350117
v -1.062856 0.269054 -0.344488
v 0.002427 2.973747 -1.437782
v 0.645954 2.780804 -1.207194
v -0.914174 2.519472 -0.824878
v -0.989695 2.409426 -0.446081
v 0.962291 2.467933 -0.682515
v -0.439349 2.886976 -1.328943
v -0.641099 2.780805 -1.207195
v 0.227643 2.951852 -1.409089
v -0.957437 2.467935 -0.682518
v 0.994548 2.409427 -0.446080
v 0.444506 2.886986 -1.333676
v -0.813870 2.639952 -1.006945
v 0.818724 2.639951 -1.006944
v 0.919028 2.519471 -0.824877
v -0.222787 2.951852 -1.409089
vt 0.941651 0.500000
vt 0.946452 0.575675
vt 0.968750 0.568495
vt 0.920368 0.589706
vt 0.850078 0.500000
vt 0.853167 0.657878
vt 0.875000 0.630008
vt 0.504098 0.500000
vt 0.544067 1.000000
vt 0.597848 0.500000
vt 0.812500 1.000000
vt 0.834301 0.716008
vt 0.146833 0.657878
vt 0.136087 0.500000
vt 0.125000 0.630007
vt 0.015625 0.500000
vt 0.000000 0.564106
vt 0.031250 0.568495
vt 1.000000 0.500000
vt 1.000000 0.564106
vt 0.151723 1.000000
vt 0.160113 0.745647
vt 0.146833 0.774138
vt 0.062500 0.851264
vt 0.075317 1.000000
vt 0.093750 0.830980
vt 0.904735 0.601707
vt 0.885715 0.618817
vt 0.909377 0.598118
vt 0.846350 0.673685
vt 0.834301 0.716008
vt 0.849117 0.667269
vt 0.165699 0.716008
vt 0.153665 0.673719
vt 0.151266 0.668156
vt 0.122031 0.626906
vt 0.085864 0.595108
vt 0.080432 0.591359
vt 0.905807 0.600882
vt 0.895501 0.608597
vt 0.881923 0.622778
vt 0.104500 0.608597
vt 0.118022 0.622719
vt 0.084711 0.594251
vt 0.114597 0.619143
vt 0.951085 0.574732
vt 0.952441 0.573756
vt 0.151216 0.668042
vt 0.000000 0.867910
vt 0.015625 1.000000
vt 0.031250 0.863521
vt 0.937613 0.580688
vt 0.968750 0.568495
vt 0.848372 0.668998
vt 0.843750 0.679714
vt 0.853167 0.657878
vt 0.895498 0.608599
vt 0.843750 0.679714
vt 0.924683 1.000000
vt 0.968750 0.863521
vt 0.937500 0.851264
vt 0.862548 1.000000
vt 0.906250 0.830980
vt 0.873093 0.800374
vt 0.674683 0.500000
vt 0.606567 1.000000
vt 0.669067 1.000000
vt 1.000000 0.867910
vt 0.989637 1.000000
vt 0.481567 1.000000
vt 0.424683 0.500000
vt 0.419067 1.000000
vt 0.362183 0.500000
vt 0.356567 1.000000
vt 0.299683 0.500000
vt 0.294067 1.000000
vt 0.746097 1.000000
vt 0.839965 0.745780
vt 0.104502 0.608599
vt 0.156250 0.679714
vt 0.074952 0.500000
vt 0.074856 0.587210
vt 0.216766 0.500000
vt 0.231567 1.000000
vt 0.165699 0.716008
vt 0.754098 0.500000
vt 0.125000 0.802009
vt 0.165699 0.716008
vt 0.951528 0.574498
vt 0.875000 0.630008
vt 0.156250 0.679714
vt 0.146833 0.657878
vt 0.013561 0.566011
vt 0.062500 0.580752
vt 0.031250 0.568495
vt 0.853167 0.657878
vt 0.843750 0.679714
vt 0.968750 0.568495
vt 1.000000 0.564106
vt 1.000000 0.564106
vt 0.000000 0.564106
vt 0.920368 0.589706
vt 0.937500 0.580752
vt 0.906250 0.601036
vt 0.093750 0.601036
vt 0.079632 0.589706
vt 0.946462 0.575669
vt 0.014220 0.566103
vt 0.013939 0.566064
vt 0.165699 0.716008
vt 0.834301 0.716008
vt 0.834301 0.716008
vt 1.000000 0.564106
vt 0.125000 0.630007
vt 0.146833 0.657878
vt 0.156250 0.679714
vt 0.165699 0.716008
vt 1.000000 0.564106
vt 0.093561 0.600913
vt 0.062500 0.580752
vt 0.906439 0.600913
vt 0.875000 0.630008
vt 0.031250 0.568495
vt 0.834301 0.716008
vt 0.000000 0.564106
vt 1.000000 0.564106
vn -0.3778 -0.9254 0.0293
vn -0.3573 -0.9337 -0.0199
vn -0.1714 -0.9850 0.0180
vn -0.5276 -0.8495 0.0032
vn -0.8172 -0.5760 0.0208
vn -0.7539 -0.6567 -0.0156
vn -0.7251 -0.6886 -0.0042
vn -0.0382 0.9992 0.0091
vn -0.2744 0.9616 -0.0063
vn -0.5636 0.8260 0.0066
vn -0.9304 -0.3664 -0.0046
vn -0.2252 -0.9722 -0.0642
vn 0.7597 -0.6501 -0.0107
vn 0.7651 -0.6437 0.0138
vn 0.7303 -0.6831 -0.0049
vn 0.0874 -0.9958 0.0263
vn -0.0188 -0.9998 0.0107
vn 0.2316 -0.9728 -0.0012
vn 0.8195 -0.5730 -0.0120
vn 0.7215 -0.6921 0.0191
vn 0.8298 -0.5578 0.0115
vn 0.3989 -0.9170 0.0029
vn 0.4600 -0.8877 -0.0180
vn 0.5985 -0.8010 -0.0094
vn -0.5600 0.3363 0.7572
vn -0.7455 0.1381 0.6520
vn -0.5622 0.1589 0.8116
vn -0.9149 0.2674 0.3024
vn -0.9825 0.1475 0.1135
vn -0.9489 -0.0287 0.3140
vn 0.9802 0.1600 0.1165
vn 0.9142 0.2664 0.3053
vn 0.9510 -0.0352 0.3070
vn 0.7319 0.3218 0.6007
vn 0.4105 0.6944 0.5910
vn 0.4550 0.3239 0.8295
vn -0.4686 0.6863 0.5562
vn -0.2572 0.8884 0.3802
vn -0.6626 0.5925 0.4581
vn 0.2790 0.8827 0.3781
vn 0.6606 0.5892 0.4652
vn 0.5021 0.1522 0.8513
vn 0.7460 0.1299 0.6532
vn -0.2823 0.3376 0.8979
vn -0.2826 0.1718 0.9437
vn 0.9483 -0.0130 0.3169
vn 0.0000 -0.9999 0.0126
vn 0.0000 -0.9998 -0.0203
vn 0.2153 -0.9765 -0.0038
vn -0.3724 0.1096 0.9216
vn -0.1893 0.1179 0.9748
vn -0.9450 -0.0099 0.3269
vn -0.9706 0.0277 0.2391
vn -0.8931 0.0540 0.4466
vn -0.6189 -0.7850 0.0249
vn -0.8562 -0.5165 -0.0088
vn -0.4471 -0.8943 -0.0161
vn -0.2153 -0.9765 -0.0038
vn -0.3989 -0.9170 0.0029
vn -0.7530 -0.6580 -0.0088
vn -0.5955 -0.8033 -0.0011
vn -0.7408 -0.6717 0.0038
vn -0.8915 0.4530 0.0028
vn -0.6229 0.7823 -0.0017
vn -0.8798 0.4752 0.0000
vn 0.1176 0.9930 -0.0051
vn 0.4404 0.8978 0.0043
vn 0.4868 0.8735 -0.0020
vn 0.7617 0.6478 0.0020
vn 0.7840 0.6207 -0.0020
vn 0.9576 0.2880 0.0027
vn 0.9623 0.2720 0.0002
vn -0.9994 0.0354 -0.0028
vn -0.8867 -0.4622 0.0039
vn 0.6150 -0.7884 0.0071
vn 0.8816 -0.4718 0.0072
vn 0.4577 -0.8889 0.0139
vn 0.4832 -0.8755 -0.0024
vn 0.9795 -0.2011 0.0081
vn 0.9911 -0.1332 -0.0040
vn 0.8970 -0.4420 0.0028
vn -0.9991 -0.0417 0.0073
vn 0.7312 -0.6821 0.0008
vn 0.9830 -0.1504 0.1050
vn -0.2420 0.6996 0.6722
vn -0.7577 0.3154 0.5713
vn 0.9409 0.3231 0.1014
vn 0.8748 0.3794 0.3010
vn 0.0842 0.6932 0.7158
vn 0.1103 0.9131 0.3925
vn 0.0737 0.9194 0.3862
vn -0.8776 0.3771 0.2959
vn -0.9408 0.3236 0.1011
vn -0.0481 0.9196 0.3898
vn -0.0024 0.9217 0.3879
vn -0.1812 0.9083 0.3769
vn -0.1968 0.9028 0.3823
vn -0.2982 0.8845 0.3588
vn 0.2938 0.8852 0.3606
vn 0.1562 0.9064 0.3924
vn -0.1336 0.9122 0.3872
vn 0.0959 0.3355 0.9371
vn 0.1043 0.1745 0.9791
vn 0.9507 0.3033 0.0645
vn -0.9518 0.3004 0.0623
vn -0.9834 -0.1400 0.1154
vn 0.7662 0.0811 0.6374
vn 0.8929 0.0546 0.4469
vn 0.9705 0.0277 0.2392
vn 0.9896 0.0205 0.1421
vn 0.5646 0.0973 0.8196
vn 0.3702 0.1135 0.9220
vn -0.5681 0.1038 0.8163
vn -0.7676 0.0790 0.6359
vn 0.2054 0.1151 0.9719
vn -0.9896 0.0206 0.1422
vn -0.0038 0.1183 0.9930
usemtl None
s 1
f 1/1/1 35/2/2 32/3/3
f 1/1/1 51/4/4 35/2/2
f 4/5/5 52/6/6 42/7/7
f 13/8/8 14/9/9 11/10/10
f 4/5/5 6/11/11 56/12/12
f 49/13/13 24/14/14 37/15/15
f 28/16/16 39/17/17 48/18/18
f 28/19/16 32/3/3 39/20/17
f 25/21/19 54/22/20 50/23/21
f 43/24/22 27/25/23 29/26/24
f 72/27/25 65/28/26 58/29/27
f 68/30/28 99/31/29 101/32/30
f 70/33/31 69/34/32 102/35/33
f 71/36/34 75/37/35 100/38/36
f 76/39/37 79/40/38 94/41/39
f 87/42/40 75/37/35 83/43/41
f 100/38/36 62/44/42 97/45/43
f 98/46/44 58/29/27 64/47/45
f 97/45/43 59/48/46 102/35/33
f 40/49/47 2/50/48 47/51/49
f 64/47/45 113/52/50 110/53/51
f 61/54/52 107/55/53 116/56/54
f 55/57/55 4/5/5 42/7/7
f 1/1/1 55/57/55 51/4/4
f 25/21/19 29/26/24 27/25/23
f 4/5/5 46/58/56 52/6/6
f 3/59/57 31/60/58 34/61/59
f 5/62/60 38/63/61 41/64/62
f 9/65/63 12/66/64 10/67/65
f 40/68/47 31/60/58 2/69/48
f 34/61/59 38/63/61 3/59/57
f 15/70/66 16/71/67 17/72/68
f 11/10/10 14/9/9 12/66/64
f 13/8/8 15/70/66 14/9/9
f 17/72/68 18/73/69 19/74/70
f 19/74/70 20/75/71 21/76/72
f 8/77/73 9/65/63 10/67/65
f 41/64/62 45/78/74 5/62/60
f 24/14/14 30/79/75 37/15/15
f 33/80/76 24/14/14 49/13/13
f 48/18/18 26/81/77 28/16/16
f 30/79/75 26/81/77 44/82/78
f 22/83/79 25/21/19 23/84/80
f 27/25/23 47/51/49 2/50/48
f 53/85/81 22/83/79 33/80/76
f 20/75/71 23/84/80 21/76/72
f 6/11/11 7/86/82 8/77/73
f 50/23/21 36/87/83 25/21/19
f 60/88/84 102/35/33 59/48/46
f 72/27/25 73/89/85 76/39/37
f 98/46/44 72/27/25 58/29/27
f 72/27/25 67/90/86 65/28/26
f 97/45/43 71/36/34 100/38/36
f 69/34/32 86/91/87 91/92/88
f 71/36/34 83/43/41 75/37/35
f 74/93/89 85/94/90 95/95/91
f 101/32/30 67/90/86 68/30/28
f 88/96/92 89/97/93 68/30/28
f 80/98/94 74/99/89 84/100/95
f 95/95/91 84/101/95 74/93/89
f 76/39/37 67/90/86 72/27/25
f 71/36/34 102/35/33 69/34/32
f 77/102/96 73/89/85 96/103/97
f 76/39/37 93/104/98 79/40/38
f 87/42/40 92/105/99 75/37/35
f 77/102/96 93/104/98 76/39/37
f 98/46/44 74/99/89 73/89/85
f 81/106/100 85/94/90 75/37/35
f 75/37/35 92/105/99 81/106/100
f 90/107/101 96/103/97 73/89/85
f 73/89/85 80/98/94 90/107/101
f 65/28/26 101/32/30 61/54/52
f 62/44/42 66/108/102 57/109/103
f 71/36/34 91/92/88 83/43/41
f 74/93/89 100/38/36 75/37/35
f 69/34/32 78/110/104 86/91/87
f 68/30/28 82/111/105 99/31/29
f 63/112/106 101/32/30 99/31/29
f 88/96/92 67/90/86 94/41/39
f 64/47/45 66/113/102 98/46/44
f 59/48/46 114/114/107 105/115/108
f 59/48/46 105/115/108 111/116/109
f 106/117/110 59/48/46 111/116/109
f 110/53/51 57/118/103 64/47/45
f 114/114/107 62/44/42 109/119/111
f 62/44/42 108/120/112 109/119/111
f 104/121/113 64/47/45 58/29/27
f 115/122/114 58/29/27 65/28/26
f 108/120/112 57/109/103 117/123/115
f 112/124/116 61/54/52 63/112/106
f 57/109/103 103/125/117 117/123/115
f 115/122/114 61/54/52 116/56/54
f 6/11/11 5/62/60 45/78/74
f 56/12/12 46/58/56 4/5/5
f 6/11/11 45/78/74 56/12/12
f 28/19/16 1/1/1 32/3/3
f 55/57/55 1/1/1 4/5/5
f 25/21/19 36/87/83 29/26/24
f 3/59/57 2/69/48 31/60/58
f 5/62/60 3/59/57 38/63/61
f 9/65/63 11/10/10 12/66/64
f 15/70/66 13/8/8 16/71/67
f 17/72/68 16/71/67 18/73/69
f 19/74/70 18/73/69 20/75/71
f 8/77/73 7/86/82 9/65/63
f 24/14/14 26/81/77 30/79/75
f 48/18/18 44/82/78 26/81/77
f 27/25/23 43/24/22 47/51/49
f 53/85/81 54/22/20 25/21/19
f 22/83/79 24/14/14 33/80/76
f 53/85/81 25/21/19 22/83/79
f 20/75/71 22/83/79 23/84/80
f 6/11/11 4/5/5 7/86/82
f 60/88/84 70/33/31 102/35/33
f 72/27/25 98/46/44 73/89/85
f 74/93/89 75/37/35 85/94/90
f 101/32/30 65/28/26 67/90/86
f 80/98/94 73/89/85 74/99/89
f 76/39/37 94/41/39 67/90/86
f 71/36/34 97/45/43 102/35/33
f 77/102/96 76/39/37 73/89/85
f 98/46/44 66/113/102 74/99/89
f 62/44/42 100/38/36 66/108/102
f 71/36/34 69/34/32 91/92/88
f 74/93/89 66/108/102 100/38/36
f 69/34/32 70/33/31 78/110/104
f 68/30/28 89/97/93 82/111/105
f 63/112/106 61/54/52 101/32/30
f 88/96/92 68/30/28 67/90/86
f 64/47/45 57/118/103 66/113/102
f 59/48/46 97/45/43 114/114/107
f 106/117/110 60/88/84 59/48/46
f 110/53/51 103/126/117 57/118/103
f 114/114/107 97/45/43 62/44/42
f 104/121/113 113/52/50 64/47/45
f 115/122/114 104/121/113 58/29/27
f 108/120/112 62/44/42 57/109/103
f 112/124/116 107/55/53 61/54/52
f 115/122/114 65/28/26 61/54/52
